<?xml version="1.0" encoding="UTF-8"?>
<svg width="160" height="160" viewBox="0 0 160 160" xmlns="http://www.w3.org/2000/svg" role="img" aria-labelledby="title">
  <title id="title">Automatic Withdrawal Logo</title>
  <defs>
    <linearGradient id="g" x1="0" x2="1">
      <stop offset="0%" stop-color="#4f46e5"/>
      <stop offset="100%" stop-color="#06b6d4"/>
    </linearGradient>
  </defs>
  <rect width="160" height="160" rx="24" fill="url(#g)" />

  <!-- simple goat-like mark: stylized 'G' with a coin -->
  <g transform="translate(28,28) scale(0.75)" fill="#fff">
    <path d="M56 8c-12 0-24 8-28 20-1 3 0 6 3 7 3 1 6 0 8-3 6-11 16-14 27-14 11 0 21 4 27 14 2 3 5 4 8 3 3-1 4-4 3-7-4-12-16-20-28-20z" opacity="0.95"/>
    <path d="M28 64c-6 0-10 5-10 11s4 11 10 11h44c6 0 10-5 10-11s-4-11-10-11H28z" opacity="0.95"/>
    <!-- coin -->
    <circle cx="102" cy="26" r="14" fill="#ffd166" />
    <text x="102" y="30" text-anchor="middle" font-size="12" font-weight="700" fill="#6b3e00">$</text>
  </g>
</svg>
